# xmcd
#
# Track frame offsets:
#	150
#	17565
#	34922
#	46147
#	68344
#	79101
#	93870
#	109083
#	125273
#	136822
#	149266
#	163703
#	171627
#
# Disc length: 2451 seconds
# Revision: 0
# Processed by: cddbd v1.5.2PL0 Copyright (c) Steve Scherf et al.
# Submitted via: dBpowerAMP V12.0
#
DISCID=a309910d
DTITLE=The Buckhorn Mountain Boys - One More River
DYEAR=2005
DGENRE=Country
TTITLE0=Wild Western Windblown Band
TTITLE1=Blow Wyoming Blow
TTITLE2=Theres Always One More River
TTITLE3=Maggies a-Waltzin'
TTITLE4=Tomahawk
TTITLE5=This Old Hat
TTITLE6=Red Eye Saloon
TTITLE7=Three Wooden Crosses
TTITLE8=Diamondfield Jack
TTITLE9=Call Me Your Darlin'
TTITLE10=Life Is Like a Mountain Railway
TTITLE11=Buckhorn Mountain Breakdown
TTITLE12=Heart of Idaho
EXTD=
EXTT0=
EXTT1=
EXTT2=
EXTT3=
EXTT4=
EXTT5=
EXTT6=
EXTT7=
EXTT8=
EXTT9=
EXTT10=
EXTT11=
EXTT12=
PLAYORDER=
